# xmcd
#
# Track frame offsets: 
#        150
#        19143
#        41164
#        62519
#        81962
#        106260
#        127699
#        148868
#        168257
#        180689
#        208162
#        236653
#        257029
#        273231
#        290636
#        306499
#
# Disc length: 4268 seconds
#
# Revision: 0
# Processed by: cddbd v1.5.2PL0 Copyright (c) Steve Scherf et al.
# Submitted via: ExactAudioCopy v1.3
#
DISCID=eb10aa10
DTITLE=Lucinda Williams - This Sweet Old World
DYEAR=2017
DGENRE=Bluegrass
TTITLE0=Six Blocks Away
TTITLE1=Prove My Love
TTITLE2=Something About What Happens When We Talk
TTITLE3=Memphis Pearl
TTITLE4=Sidewalks of theCity
TTITLE5=Sweet Old World
TTITLE6=Little Angel Little Brother
TTITLE7=Pineola
TTITLE8=Lines Around Your Eyes
TTITLE9=Drivin Down a Dead End Street
TTITLE10=Hot Blood
TTITLE11=Which Will
TTITLE12=Factory Blues
TTITLE13=What You Dont Know
TTITLE14=Wild and Blue
TTITLE15=Dark Side of Life
EXTD=
EXTT0=
EXTT1=
EXTT2=
EXTT3=
EXTT4=
EXTT5=
EXTT6=
EXTT7=
EXTT8=
EXTT9=
EXTT10=
EXTT11=
EXTT12=
EXTT13=
EXTT14=
EXTT15=
PLAYORDER=
